name ./resultDataOpenSim/trcMotMarkerGrf/sub06/grf-12-04.mot
datacolumns 19
datarows 22
range 1.60800000 1.69200000
endheader

                time	     ground_force_vx	     ground_force_vy	     ground_force_vz	     ground_force_px	     ground_force_py	     ground_force_pz	   l_ground_force_vx	   l_ground_force_vy	   l_ground_force_vz	   l_ground_force_px	   l_ground_force_py	   l_ground_force_pz	     ground_torque_x	     ground_torque_y	     ground_torque_z	   l_ground_torque_x	   l_ground_torque_y	   l_ground_torque_z	
          1.60800000	        205.02150432	        675.26553186	        -27.38090481	          0.82288044	          0.00000000	          0.08327294	          0.00000000	          0.00000000	          0.00000000	          0.00000000	          0.00000000	          0.00000000	          0.00000000	          2.65428217	          0.00000000	          0.00000000	          0.00000000	          0.00000000	
          1.61200000	        209.56717199	        660.43409194	        -27.27224042	          0.82279897	          0.00000000	          0.08295103	          0.00000000	          0.00000000	          0.00000000	          0.00000000	          0.00000000	          0.00000000	          0.00000000	          2.69433254	          0.00000000	          0.00000000	          0.00000000	          0.00000000	
          1.61600000	        213.50016948	        643.33237088	        -27.01893655	          0.82264247	          0.00000000	          0.08264708	          0.00000000	          0.00000000	          0.00000000	          0.00000000	          0.00000000	          0.00000000	          0.00000000	          2.72388393	          0.00000000	          0.00000000	          0.00000000	          0.00000000	
          1.62000000	        216.70401711	        623.70743587	        -26.42962178	          0.82238335	          0.00000000	          0.08235723	          0.00000000	          0.00000000	          0.00000000	          0.00000000	          0.00000000	          0.00000000	          0.00000000	          2.72331972	          0.00000000	          0.00000000	          0.00000000	          0.00000000	
          1.62400000	        219.02099677	        601.24119836	        -25.34667810	          0.82200008	          0.00000000	          0.08208011	          0.00000000	          0.00000000	          0.00000000	          0.00000000	          0.00000000	          0.00000000	          0.00000000	          2.67475844	          0.00000000	          0.00000000	          0.00000000	          0.00000000	
          1.62800000	        220.15964679	        575.58703869	        -23.67893142	          0.82149713	          0.00000000	          0.08181441	          0.00000000	          0.00000000	          0.00000000	          0.00000000	          0.00000000	          0.00000000	          0.00000000	          2.56561413	          0.00000000	          0.00000000	          0.00000000	          0.00000000	
          1.63200000	        219.66495823	        546.43859036	        -21.41966784	          0.82093710	          0.00000000	          0.08155967	          0.00000000	          0.00000000	          0.00000000	          0.00000000	          0.00000000	          0.00000000	          0.00000000	          2.39226528	          0.00000000	          0.00000000	          0.00000000	          0.00000000	
          1.63600000	        216.96683953	        513.60442014	        -18.63757043	          0.82042092	          0.00000000	          0.08131405	          0.00000000	          0.00000000	          0.00000000	          0.00000000	          0.00000000	          0.00000000	          0.00000000	          2.16277072	          0.00000000	          0.00000000	          0.00000000	          0.00000000	
          1.64000000	        211.46112787	        477.08427816	        -15.45802966	          0.82005297	          0.00000000	          0.08108082	          0.00000000	          0.00000000	          0.00000000	          0.00000000	          0.00000000	          0.00000000	          0.00000000	          1.89730227	          0.00000000	          0.00000000	          0.00000000	          0.00000000	
          1.64400000	        202.59234584	        437.15815497	        -12.04743195	          0.81994217	          0.00000000	          0.08087721	          0.00000000	          0.00000000	          0.00000000	          0.00000000	          0.00000000	          0.00000000	          0.00000000	          1.62546775	          0.00000000	          0.00000000	          0.00000000	          0.00000000	
          1.64800000	        189.96929499	        394.48633384	         -8.60081150	          0.82021459	          0.00000000	          0.08072841	          0.00000000	          0.00000000	          0.00000000	          0.00000000	          0.00000000	          0.00000000	          0.00000000	          1.38062316	          0.00000000	          0.00000000	          0.00000000	          0.00000000	
          1.65200000	        173.53453102	        350.17120149	         -5.32866595	          0.82102705	          0.00000000	          0.08065133	          0.00000000	          0.00000000	          0.00000000	          0.00000000	          0.00000000	          0.00000000	          0.00000000	          1.19228650	          0.00000000	          0.00000000	          0.00000000	          0.00000000	
          1.65600000	        153.71984766	        305.69404690	         -2.43267860	          0.82256669	          0.00000000	          0.08062668	          0.00000000	          0.00000000	          0.00000000	          0.00000000	          0.00000000	          0.00000000	          0.00000000	          1.07864070	          0.00000000	          0.00000000	          0.00000000	          0.00000000	
          1.66000000	        131.48607322	        262.66884689	         -0.07266928	          0.82502281	          0.00000000	          0.08058541	          0.00000000	          0.00000000	          0.00000000	          0.00000000	          0.00000000	          0.00000000	          0.00000000	          1.04146417	          0.00000000	          0.00000000	          0.00000000	          0.00000000	
          1.66400000	        108.21369544	        222.48060610	          1.65936061	          0.82852441	          0.00000000	          0.08043904	          0.00000000	          0.00000000	          0.00000000	          0.00000000	          0.00000000	          0.00000000	          0.00000000	          1.06536531	          0.00000000	          0.00000000	          0.00000000	          0.00000000	
          1.66800000	         85.46717382	        186.00171416	          2.75190192	          0.83301474	          0.00000000	          0.08012362	          0.00000000	          0.00000000	          0.00000000	          0.00000000	          0.00000000	          0.00000000	          0.00000000	          1.12196626	          0.00000000	          0.00000000	          0.00000000	          0.00000000	
          1.67200000	         64.67481754	        153.53281283	          3.26893681	          0.83812530	          0.00000000	          0.07961522	          0.00000000	          0.00000000	          0.00000000	          0.00000000	          0.00000000	          0.00000000	          0.00000000	          1.17803500	          0.00000000	          0.00000000	          0.00000000	          0.00000000	
          1.67600000	         46.82727644	        124.93745321	          3.32187280	          0.84325029	          0.00000000	          0.07893426	          0.00000000	          0.00000000	          0.00000000	          0.00000000	          0.00000000	          0.00000000	          0.00000000	          1.20507146	          0.00000000	          0.00000000	          0.00000000	          0.00000000	
          1.68000000	         32.32842815	         99.84458058	          3.03612700	          0.84781962	          0.00000000	          0.07817615	          0.00000000	          0.00000000	          0.00000000	          0.00000000	          0.00000000	          0.00000000	          0.00000000	          1.18707580	          0.00000000	          0.00000000	          0.00000000	          0.00000000	
          1.68400000	         21.05321416	         77.82992423	          2.53532709	          0.85148478	          0.00000000	          0.07754963	          0.00000000	          0.00000000	          0.00000000	          0.00000000	          0.00000000	          0.00000000	          0.00000000	          1.12358282	          0.00000000	          0.00000000	          0.00000000	          0.00000000	
          1.68800000	         12.55432882	         58.52680808	          1.93693199	          0.85410194	          0.00000000	          0.07736062	          0.00000000	          0.00000000	          0.00000000	          0.00000000	          0.00000000	          0.00000000	          0.00000000	          1.02673452	          0.00000000	          0.00000000	          0.00000000	          0.00000000	
          1.69200000	          6.27370177	         41.62064452	          1.33968778	          0.85522326	          0.00000000	          0.07795339	          0.00000000	          0.00000000	          0.00000000	          0.00000000	          0.00000000	          0.00000000	          0.00000000	          0.91385505	          0.00000000	          0.00000000	          0.00000000	          0.00000000	
